<svg width="24" height="24" viewBox="0 0 24 24" fill="none" xmlns="http://www.w3.org/2000/svg">
<path d="M10 4H4C2.89 4 2 4.89 2 6V18C2 19.097 2.903 20 4 20H20C21.097 20 22 19.097 22 18V8C22 7.46957 21.7893 6.96086 21.4142 6.58579C21.0391 6.21071 20.5304 6 20 6H12L10 4Z" fill="#0C87F9"/>
<rect x="17" y="13" width="6" height="7" fill="#0C87F9"/>
<path d="M22.0003 9H10.9997C10.4697 9.00104 9.96166 9.21206 9.58686 9.58686C9.21206 9.96166 9.00104 10.4697 9 10.9997V22.0003C9.00104 22.5303 9.21206 23.0384 9.58686 23.4132C9.96166 23.788 10.4697 23.9989 10.9997 24H22.0003C22.2629 24 22.5229 23.9482 22.7655 23.8477C23.0082 23.7472 23.2286 23.6 23.4143 23.4143C23.6 23.2286 23.7472 23.0082 23.8477 22.7655C23.9482 22.5229 24 22.2629 24 22.0003V10.9997C23.9989 10.4697 23.788 9.96166 23.4132 9.58686C23.0384 9.21206 22.5303 9.00104 22.0003 9ZM22.3932 19.2148H20.7862L20.1774 17.989L19.5841 19.2148H16.5V15.3174C16.4949 15.1601 16.4282 15.011 16.3143 14.9023C16.2005 14.7936 16.0485 14.7338 15.891 14.736C15.734 14.7339 15.5824 14.7937 15.4692 14.9025C15.3559 15.0114 15.2901 15.1604 15.286 15.3174V19.2148H13.6831V15.3096C13.677 15.1522 13.6101 15.0033 13.4966 14.8941C13.3831 14.785 13.2316 14.7241 13.0741 14.7242C12.9957 14.7226 12.9177 14.7365 12.8447 14.7651C12.7716 14.7937 12.7049 14.8364 12.6484 14.8907C12.5918 14.9451 12.5465 15.0101 12.5151 15.0819C12.4837 15.1538 12.4667 15.2312 12.4652 15.3096V19.2148H10.8544V13.7852H12.4652V14.4178H12.4927C12.5262 14.367 12.5629 14.3184 12.6027 14.2724L12.6223 14.2449L12.7127 14.1545C12.814 14.0584 12.9309 13.98 13.0584 13.9227L13.1606 13.8952C13.2246 13.8723 13.2903 13.8539 13.357 13.8402L13.4709 13.8167C13.5944 13.7972 13.7192 13.7867 13.8442 13.7852C13.9244 13.7857 14.0045 13.7923 14.0838 13.8049C14.1342 13.8083 14.1841 13.8162 14.2331 13.8284H14.2567C14.438 13.8636 14.6098 13.9367 14.7608 14.0431C14.9118 14.1494 15.0386 14.2864 15.1328 14.4453L15.286 14.3038L15.3057 14.2842L15.4039 14.1977C15.5223 14.0968 15.6546 14.0134 15.7968 13.9502C15.8274 13.9374 15.8589 13.9269 15.891 13.9188C15.9678 13.8895 16.0466 13.8659 16.1268 13.8481L16.2603 13.8206C16.3901 13.7982 16.5215 13.7864 16.6532 13.7852C16.9138 13.7568 17.1771 13.8044 17.4113 13.9222C17.6456 14.04 17.8407 14.223 17.9733 14.4492C18.0676 14.6219 18.1201 14.8143 18.1265 15.011V18.9398L19.3759 16.4843L17.9969 13.7695H19.6076L20.2166 14.9953L20.7862 13.7852H22.397L21.0181 16.5L22.3932 19.2148Z" fill="white"/>
</svg>
