<svg width="32" height="32" viewBox="0 0 32 32" fill="none" xmlns="http://www.w3.org/2000/svg">
<path d="M27.7339 0H4.2661C3.13534 0.00221502 2.05153 0.452391 1.25196 1.25196C0.452391 2.05153 0.00221502 3.13534 0 4.2661V27.7339C0.00221502 28.8647 0.452391 29.9486 1.25196 30.7481C2.05153 31.5477 3.13534 31.9977 4.2661 32H27.7339C28.2942 32 28.8489 31.8896 29.3664 31.6752C29.8841 31.4608 30.3543 31.1467 30.7504 30.7504C31.1467 30.3543 31.4608 29.8841 31.6752 29.3664C31.8896 28.8489 32 28.2942 32 27.7339V4.2661C31.9977 3.13534 31.5477 2.05153 30.7481 1.25196C29.9486 0.452391 28.8647 0.00221502 27.7339 0ZM28.5721 21.7915H25.144L23.845 19.1765L22.5794 21.7915H16V13.4772C15.9891 13.1415 15.8468 12.8235 15.6039 12.5915C15.361 12.3596 15.0368 12.2322 14.7009 12.2368C14.3659 12.2323 14.0425 12.3599 13.8009 12.5921C13.5593 12.8243 13.4189 13.1423 13.4102 13.4772V21.7915H9.99056V13.4605C9.97755 13.1247 9.83497 12.807 9.59273 12.5742C9.35051 12.3413 9.02747 12.2114 8.69145 12.2116C8.52416 12.2083 8.35783 12.238 8.20199 12.2989C8.04615 12.3599 7.90384 12.4509 7.7832 12.5669C7.66256 12.6829 7.56594 12.8215 7.49888 12.9748C7.43182 13.1281 7.39561 13.2931 7.39234 13.4605V21.7915H3.956V10.2085H7.39234V11.5579H7.45102C7.52251 11.4496 7.60091 11.346 7.68569 11.2478L7.72761 11.1891L7.92039 10.9963C8.13664 10.7912 8.38601 10.624 8.65794 10.5018L8.87586 10.4432C9.01257 10.3941 9.15262 10.3549 9.29493 10.3258L9.53799 10.2755C9.80144 10.2341 10.0675 10.2117 10.3342 10.2085C10.5054 10.2096 10.6763 10.2236 10.8455 10.2504C10.9529 10.2576 11.0595 10.2745 11.164 10.3007H11.2142C11.601 10.3757 11.9675 10.5317 12.2896 10.7585C12.6118 10.9853 12.8823 11.2777 13.0833 11.6165L13.4102 11.3148L13.4521 11.2729L13.6616 11.0885C13.9141 10.8731 14.1964 10.6953 14.4997 10.5605C14.565 10.5332 14.6323 10.5107 14.7009 10.4935C14.8646 10.4309 15.0327 10.3805 15.2038 10.3426L15.4887 10.2839C15.7656 10.2362 16.0459 10.211 16.3269 10.2085C16.8829 10.1479 17.4445 10.2493 17.9442 10.5007C18.4439 10.752 18.8602 11.1424 19.143 11.6249C19.3443 11.9933 19.4562 12.4039 19.4699 12.8235V21.2048L22.1352 15.9665L19.1933 10.175H22.6296L23.9287 12.7899L25.144 10.2085H28.5803L25.6386 16L28.5721 21.7915Z" fill="white"/>
</svg>
